<svg width="32" height="32" viewBox="0 0 32 32" fill="none" xmlns="http://www.w3.org/2000/svg">
<path d="M14 16H16V21.3333H18.6667M16 10.6667H16.0133M18.0838 27.8177C19.6357 27.544 21.1185 26.9674 22.4476 26.1207C23.7767 25.274 24.9259 24.1738 25.8298 22.8829C26.7337 21.592 27.3745 20.1358 27.7156 18.5973C28.0566 17.0588 28.0913 15.4681 27.8177 13.9162C27.544 12.3643 26.9674 10.8815 26.1207 9.5524C25.274 8.22333 24.1738 7.07405 22.8829 6.17017C21.592 5.2663 20.1358 4.62553 18.5973 4.28445C17.0588 3.94337 15.4681 3.90866 13.9162 4.18231C12.3643 4.45595 10.8815 5.03259 9.5524 5.8793C8.22333 6.72601 7.07405 7.82621 6.17017 9.11708C5.2663 10.408 4.62553 11.8642 4.28445 13.4027C3.94337 14.9412 3.90866 16.5319 4.18231 18.0838C4.45595 19.6357 5.03259 21.1185 5.8793 22.4476C6.72602 23.7767 7.82621 24.9259 9.11709 25.8298C10.408 26.7337 11.8642 27.3745 13.4027 27.7156C14.9412 28.0566 16.5319 28.0913 18.0838 27.8177Z" stroke="#2A9D8F" stroke-width="2" stroke-linecap="round" stroke-linejoin="round"/>
</svg>
