<svg width="75" height="75" viewBox="0 0 75 75" fill="none" xmlns="http://www.w3.org/2000/svg">
<path fill-rule="evenodd" clip-rule="evenodd" d="M65.625 37.5C65.625 53.033 53.033 65.625 37.5 65.625C21.967 65.625 9.375 53.033 9.375 37.5C9.375 21.967 21.967 9.375 37.5 9.375C53.033 9.375 65.625 21.967 65.625 37.5ZM37.5 54.125C36.9477 54.125 36.5 53.6773 36.5 53.125V38.5H21.875C21.3227 38.5 20.875 38.0523 20.875 37.5C20.875 36.9477 21.3227 36.5 21.875 36.5H36.5V21.875C36.5 21.3227 36.9477 20.875 37.5 20.875C38.0523 20.875 38.5 21.3227 38.5 21.875V36.5H53.125C53.6773 36.5 54.125 36.9477 54.125 37.5C54.125 38.0523 53.6773 38.5 53.125 38.5H38.5V53.125C38.5 53.6773 38.0523 54.125 37.5 54.125Z" fill="#2A9D8F"/>
</svg>
