<svg width="40" height="40" viewBox="0 0 40 40" fill="none" xmlns="http://www.w3.org/2000/svg">
<path fill-rule="evenodd" clip-rule="evenodd" d="M8.79078 16.877C8.33334 17.8715 8.33334 19.003 8.33334 21.2659V28.3332C8.33334 31.4759 8.33334 33.0473 9.30965 34.0236C10.2686 34.9825 11.8014 34.9996 14.8333 34.9999V26.6667C14.8333 25.1939 16.0273 24 17.5 24H22.5C23.9728 24 25.1667 25.1939 25.1667 26.6667V34.9999C28.1986 34.9996 29.7315 34.9825 30.6904 34.0236C31.6667 33.0473 31.6667 31.4759 31.6667 28.3332V21.2659C31.6667 19.003 31.6667 17.8715 31.2092 16.877C30.7518 15.8824 29.8927 15.146 28.1746 13.6733L26.5079 12.2448C23.4024 9.58289 21.8496 8.25195 20 8.25195C18.1504 8.25195 16.5976 9.58289 13.4921 12.2448L11.8254 13.6733C10.1073 15.146 9.24821 15.8824 8.79078 16.877ZM23.1667 34.9999V26.6667C23.1667 26.2985 22.8682 26 22.5 26H17.5C17.1318 26 16.8333 26.2985 16.8333 26.6667V34.9999H23.1667Z" fill="#D9D9D9"/>
</svg>
