<svg width="70" height="70" viewBox="0 0 70 70" fill="none" xmlns="http://www.w3.org/2000/svg">
<path d="M45.9375 61.25C45.9375 61.8302 45.707 62.3866 45.2968 62.7968C44.8866 63.207 44.3302 63.4375 43.75 63.4375H26.25C25.6698 63.4375 25.1134 63.207 24.7032 62.7968C24.293 62.3866 24.0625 61.8302 24.0625 61.25C24.0625 60.6698 24.293 60.1134 24.7032 59.7032C25.1134 59.293 25.6698 59.0625 26.25 59.0625H43.75C44.3302 59.0625 44.8866 59.293 45.2968 59.7032C45.707 60.1134 45.9375 60.6698 45.9375 61.25ZM62.177 16.4938C59.7184 11.6885 56.0267 7.62314 51.4801 4.71406C51.2372 4.55888 50.9659 4.45325 50.6821 4.40323C50.3982 4.35321 50.1072 4.3598 49.8258 4.42261C49.5445 4.48542 49.2784 4.60321 49.0427 4.76922C48.807 4.93524 48.6065 5.14619 48.4527 5.38995C48.2988 5.63372 48.1946 5.90549 48.1461 6.18965C48.0977 6.47381 48.1058 6.76474 48.1702 7.04574C48.2345 7.32673 48.3537 7.59223 48.521 7.82699C48.6883 8.06175 48.9003 8.26113 49.1449 8.41367C53.0457 10.8951 56.2062 14.3814 58.2941 18.5063C58.5701 19.0048 59.0296 19.3761 59.5751 19.5409C60.1205 19.7058 60.7088 19.6514 61.2147 19.3892C61.7206 19.1269 62.1043 18.6777 62.284 18.1369C62.4637 17.5962 62.4253 17.0066 62.177 16.4938ZM9.76445 19.6875C10.1652 19.6873 10.5582 19.5771 10.9006 19.3688C11.243 19.1605 11.5215 18.8621 11.7059 18.5063C13.7938 14.3814 16.9543 10.8951 20.8551 8.41367C21.0997 8.26113 21.3117 8.06175 21.479 7.82699C21.6463 7.59223 21.7655 7.32673 21.8298 7.04574C21.8942 6.76474 21.9023 6.47381 21.8539 6.18965C21.8054 5.90549 21.7012 5.63372 21.5473 5.38995C21.3935 5.14619 21.193 4.93524 20.9573 4.76922C20.7216 4.60321 20.4555 4.48542 20.1742 4.42261C19.8928 4.3598 19.6018 4.35321 19.3179 4.40323C19.0341 4.45325 18.7629 4.55888 18.5199 4.71406C13.9733 7.62314 10.2816 11.6885 7.82305 16.4938C7.65034 16.8271 7.56634 17.1993 7.57914 17.5746C7.59194 17.9498 7.70111 18.3154 7.89613 18.6363C8.09116 18.9571 8.36548 19.2223 8.69269 19.4064C9.0199 19.5906 9.389 19.6873 9.76445 19.6875ZM60.6512 48.1086C61.0387 48.7732 61.2442 49.5282 61.2468 50.2975C61.2494 51.0668 61.0492 51.8232 60.6662 52.4904C60.2832 53.1576 59.7311 53.7121 59.0655 54.0978C58.3999 54.4835 57.6443 54.6869 56.875 54.6875H13.125C12.3562 54.686 11.6013 54.4819 10.9364 54.0957C10.2716 53.7096 9.72021 53.1551 9.33789 52.488C8.95557 51.821 8.75578 51.065 8.75866 50.2961C8.76154 49.5273 8.96699 48.7728 9.3543 48.1086C11.818 43.8566 13.125 37.8109 13.125 30.625C13.125 24.8234 15.4297 19.2594 19.532 15.157C23.6344 11.0547 29.1984 8.75 35 8.75C40.8016 8.75 46.3656 11.0547 50.468 15.157C54.5703 19.2594 56.875 24.8234 56.875 30.625C56.875 37.8082 58.182 43.8539 60.6512 48.1086ZM56.875 50.3125C53.9656 45.3168 52.5 38.6941 52.5 30.625C52.5 25.9837 50.6563 21.5325 47.3744 18.2506C44.0925 14.9687 39.6413 13.125 35 13.125C30.3587 13.125 25.9075 14.9687 22.6256 18.2506C19.3437 21.5325 17.5 25.9837 17.5 30.625C17.5 38.6969 16.0289 45.3195 13.125 50.3125H56.875Z" fill="#EBFAF8"/>
</svg>
